<?xml version="1.0" encoding="utf-8"?>
<!-- Generator: Adobe Illustrator 21.0.0, SVG Export Plug-In . SVG Version: 6.00 Build 0)  -->
<svg version="1.1" xmlns="http://www.w3.org/2000/svg" xmlns:xlink="http://www.w3.org/1999/xlink" x="0px" y="0px"
	 viewBox="0 0 240 90" enable-background="new 0 0 240 90" xml:space="preserve">
<g id="Layer_2" display="none">
	
		<rect x="-10" display="inline" fill="none" stroke="#E8E7E7" stroke-width="1.1277" stroke-miterlimit="10" width="260" height="90"/>
</g>
<g id="Layer_1">
	<g>
		<path fill="#326690" d="M166,34.7c-2.4,1.3-2.3,5.5,0.3,6.5c2.8,1,5.8,1.1,8.6,1.8c0.7,0.2,1.4,0.5,1.7,1.2c0.7,1.4,0.1,3.5-1.5,4
			c-2.3,0.7-5,0.7-7.2-0.2c-1.5-0.6-2.2-2.1-2.3-3.5c-0.6,0-1.3,0-1.9,0.1c0.1,1.4,0.4,2.9,1.5,3.8c1.8,1.4,4.1,1.6,6.3,1.7
			c2,0,4.2-0.2,5.9-1.3c2-1.4,2.2-5.1-0.2-6.3c-2.2-1.1-4.7-1.2-7-1.7c-1.1-0.3-2.4-0.4-3.4-1.1c-1.3-1.2-0.7-3.7,1-4.1
			c2.2-0.6,4.6-0.7,6.7,0.1c1.3,0.4,1.8,1.8,2,2.9c0.6,0,1.2,0,1.9,0c0-1.2-0.4-2.5-1.4-3.3c-1.6-1.3-3.8-1.4-5.7-1.4
			C169.6,33.8,167.7,33.8,166,34.7z"/>
		<path d="M94.7,35.2c-1-0.9-2.5-1.2-3.8-1.2c-2.9,0-5.8,0.1-8.7,0.1c0,5.1,0,10.3,0,15.4c0.5,0,1,0,1.5,0c0-2.2-0.1-4.4,0-6.5
			c2.5,0,4.9,0,7.4,0c1.8-0.1,3.9-0.9,4.6-2.7C96.3,38.6,96.1,36.4,94.7,35.2z M93.9,40c-0.5,1.3-2,1.7-3.3,1.8
			c-2.3,0.1-4.6,0-6.8,0c0-2.1,0-4.3,0-6.4c2.2,0,4.4,0,6.6,0c1.1,0,2.4,0.2,3.1,1.1C94.2,37.4,94.3,38.8,93.9,40z"/>
		<path fill="#326690" d="M200.1,34.1c0,5.1,0,10.2,0,15.4c4.4,0,8.9,0,13.3,0c0-0.4,0-0.8,0-1.3c-3.8-0.1-7.6,0-11.5-0.1
			c0-4.7,0-9.4,0-14.1C201.3,34.1,200.7,34.1,200.1,34.1z"/>
		<path fill="#FFFFFF" d="M123.3,36.1c0,1.1,0,2.2,0,3.3c-0.7,0-1.3,0-2,0c0,0.3,0,0.7,0,1c0.7,0,1.4,0,2,0c0,2.3,0,4.7,0,7
			c0,0.7,0.2,1.4,0.8,1.8c1.1,0.5,2.3,0.4,3.5,0.3c0-0.3,0-0.7,0-1c-0.8,0.1-1.6,0.2-2.3-0.2c-0.5-0.3-0.4-0.9-0.5-1.4
			c0-2.2,0-4.3,0-6.5c0.9,0,1.8,0,2.7,0c0-0.4,0-0.7-0.1-1.1c-0.9,0-1.8,0-2.7,0c0-1.1,0-2.2,0-3.3
			C124.4,36.1,123.8,36.1,123.3,36.1z"/>
		<path fill="#FFFFFF" d="M110.6,40c-1.4,0.9-1.4,3.5,0.3,4.2c2.3,0.8,4.9,0.6,7.3,1.3c1.2,0.4,1.3,2.2,0.2,2.8
			c-1.6,0.8-3.5,0.7-5.2,0.4c-1.2-0.2-2.2-1-2.3-2.3c-0.6,0-1.2,0-1.7,0c0.2,0.9,0.4,1.9,1.2,2.5c1.3,0.9,3,0.9,4.5,1
			c1.6,0,3.3-0.1,4.7-0.9c1.2-0.7,1.6-2.3,0.9-3.4c-0.5-0.8-1.4-1.1-2.3-1.3c-1.9-0.4-3.9-0.4-5.8-0.8c-0.7-0.2-1.3-0.7-1.3-1.4
			c0-1,1.1-1.5,2-1.7c1.4-0.2,3-0.3,4.4,0.3c0.8,0.3,1,1.1,1.2,1.9c0.6,0,1.1,0,1.7,0c-0.1-0.9-0.4-1.9-1.2-2.4c-1.5-1-3.3-1-5-0.9
			C113,39.2,111.7,39.3,110.6,40z"/>
		<path fill="#FFFFFF" d="M146.1,39.5c-0.7,0.3-1.1,1-1.5,1.7c0-0.6,0-1.2,0-1.7c-0.5,0-1,0-1.6,0c-0.1,3.4,0,6.7,0,10.1
			c0.5,0,1,0,1.5,0c0-1.7,0-3.5,0-5.2c0-1.2,0.4-2.6,1.4-3.3c1.1-0.8,2.5-0.6,3.8-0.6c0-0.4,0-0.9,0-1.3
			C148.5,39.1,147.3,39,146.1,39.5z"/>
		<path fill="#326690" d="M183.7,34.9c2.2-1.1,4.7-1.3,7.1-1.1c2.3,0.2,4.6,1,6.1,2.8c1.9,2,2.3,5.2,1.5,7.8
			c-0.4,1.5-1.4,2.6-2.5,3.6c0.9,0.6,1.8,1.2,2.7,1.9c-0.4,0.4-0.8,0.7-1.2,1.1c-0.9-0.6-1.8-1.3-2.7-1.8c-0.7,0-1.4,0.4-2.2,0.6
			c-2,0.4-4.2,0.4-6.2,0c-2.2-0.4-4.4-1.7-5.6-3.7c-1.2-1.9-1.3-4.4-0.8-6.5C180.5,37.5,181.9,35.8,183.7,34.9z M186.7,35.3
			c-2.1,0.5-4.1,2-4.8,4.1c-0.7,2.3-0.5,5,1.2,6.9c1.5,1.7,3.7,2.4,5.9,2.4c2.4,0.1,5-0.6,6.6-2.5c2.2-2.8,1.9-7.3-1-9.5
			C192.4,34.8,189.4,34.7,186.7,35.3z"/>
		<path d="M123.3,36.1c0.5,0,1,0,1.6,0c0,1.1,0,2.2,0,3.3c0.9,0,1.8,0,2.7,0c0,0.4,0,0.7,0.1,1.1c-0.9,0-1.8,0-2.7,0
			c0,2.2,0,4.3,0,6.5c0,0.5,0,1.1,0.5,1.4c0.7,0.3,1.5,0.2,2.3,0.2c0,0.3,0,0.7,0,1c-1.2,0.1-2.4,0.2-3.5-0.3
			c-0.7-0.3-0.9-1.1-0.8-1.8c0-2.3,0-4.7,0-7c-0.7,0-1.4,0-2,0c0-0.3,0-0.7,0-1c0.7,0,1.3,0,2,0C123.3,38.3,123.3,37.2,123.3,36.1z"
			/>
		<path d="M106.1,40c-1.8-1-4-1.1-6-0.8c-1.7,0.3-3.3,1.2-4,2.8c-0.7,1.6-0.7,3.5,0.1,5.1c0.9,1.7,2.8,2.6,4.6,2.7
			c2.3,0.2,4.9-0.1,6.6-1.9C109.2,45.6,108.8,41.5,106.1,40z M105.8,47.5c-0.9,0.9-2.2,1.3-3.4,1.3c-1.4,0.1-2.9-0.2-3.9-1.1
			c-1.3-1.2-1.5-3.2-1-4.9c0.5-1.5,1.9-2.4,3.4-2.6c1.4-0.2,3-0.1,4.3,0.7c1,0.6,1.5,1.7,1.6,2.8C107,45.1,106.8,46.5,105.8,47.5z"
			/>
		<path d="M110.6,40c1-0.7,2.3-0.8,3.5-0.9c1.7-0.1,3.6-0.1,5,0.9c0.8,0.5,1.1,1.5,1.2,2.4c-0.6,0-1.1,0-1.7,0
			c-0.1-0.8-0.4-1.5-1.2-1.9c-1.4-0.6-2.9-0.6-4.4-0.3c-0.9,0.1-2,0.6-2,1.7c-0.1,0.7,0.6,1.3,1.3,1.4c1.9,0.5,3.9,0.4,5.8,0.8
			c0.9,0.2,1.8,0.6,2.3,1.3c0.7,1.1,0.3,2.8-0.9,3.4c-1.4,0.8-3.1,0.9-4.7,0.9c-1.5-0.1-3.2-0.1-4.5-1c-0.8-0.6-1.1-1.5-1.2-2.5
			c0.6,0,1.2,0,1.7,0c0,1.3,1.1,2.2,2.3,2.3c1.7,0.2,3.6,0.4,5.2-0.4c1.1-0.6,1-2.4-0.2-2.8c-2.4-0.7-5-0.5-7.3-1.3
			C109.2,43.5,109.2,40.9,110.6,40z"/>
		<path d="M132.4,39.3c1.6-0.4,3.4-0.4,5,0.1c0.9,0.3,1.6,1,2.3,1.6c0-0.6,0.1-1.1,0.1-1.6c0.5,0,1,0,1.5,0c0.1,3.1,0,6.2,0.1,9.3
			c0.1,1.3-0.2,2.7-1.2,3.6c-1.3,1.2-3.2,1.4-4.9,1.4c-1.5,0-3.1-0.1-4.5-0.8c-0.9-0.5-1.4-1.5-1.6-2.5c0.5,0,1,0,1.5,0
			c0.3,0.7,0.6,1.5,1.3,1.8c1.1,0.5,2.3,0.5,3.5,0.5c1.3-0.1,2.8-0.3,3.6-1.4c0.8-1.1,0.6-2.5,0.6-3.8c-1.6,1.7-4.1,2-6.3,1.7
			c-1.4-0.2-2.8-0.7-3.8-1.8c-1.1-1.4-1.2-3.3-0.8-4.9C129.2,40.9,130.8,39.7,132.4,39.3z M133.7,40.3c-1.1,0.2-2.3,0.7-2.9,1.7
			c-0.7,1.2-0.7,2.8-0.3,4c0.5,1.3,2,2,3.3,2.2c1.7,0.2,3.7,0,4.9-1.3c1.4-1.7,1.2-4.6-0.6-5.9C136.9,40.1,135.2,40.1,133.7,40.3z"
			/>
		<path d="M146.1,39.5c1.2-0.5,2.4-0.4,3.6-0.4c0,0.4,0,0.9,0,1.3c-1.3,0-2.7-0.2-3.8,0.6c-1,0.7-1.4,2.1-1.4,3.3c0,1.7,0,3.5,0,5.2
			c-0.5,0-1,0-1.5,0c-0.1-3.4-0.1-6.7,0-10.1c0.5,0,1,0,1.6,0c0,0.6,0,1.2,0,1.7C145,40.5,145.4,39.8,146.1,39.5z"/>
		<path d="M150.3,41.6c1-1.7,3.1-2.4,5-2.5c2-0.1,4.2,0.2,5.6,1.7c1.1,1,1.4,2.5,1.5,4c-3.8,0-7.5,0-11.3,0c0.1,1,0.4,2.1,1.2,2.8
			c1.5,1.3,3.7,1.5,5.5,1c1.2-0.3,2.2-1.2,2.6-2.4c0.6,0,1.2,0,1.7,0c-0.5,1.7-2,2.9-3.7,3.3c-2.3,0.5-5,0.4-7-1
			C149.4,47.1,149,43.8,150.3,41.6z M153.2,40.8c-1.1,0.6-1.7,1.8-1.9,3c3.2,0,6.4,0,9.6,0c-0.1-0.7-0.3-1.5-0.8-2
			C158.4,39.8,155.3,39.6,153.2,40.8z"/>
		<path fill="#FFFFFF" d="M52.8,23.2c-1.9-0.3-3.9-0.4-5.8-0.1c-1.1,0.2-2.2,0.7-3.1,1.2c-3.1-1-6.6-1.6-9.8-1
			c-2.3,0.4-4.5,1.8-5.7,3.9c-1.5,2.5-1.8,5.5-1.6,8.4c0.4,3.2,1.2,6.4,2.1,9.5c0.8,2.7,1.7,5.4,3.2,7.8c0.8,1.3,2,2.7,3.6,3.1
			c1.3,0.3,2.6-0.1,3.6-0.9c0.5,0.5,1.1,0.9,1.8,1.1c1.9,0.7,4,0.7,5.9-0.1c0.1,2.6,0,5.3,1,7.7c0.4,1.2,1,2.3,2.1,3
			c1.2,0.8,2.6,0.9,4,0.7c1.2-0.2,2.5-0.6,3.5-1.2c1.1-0.7,2-1.7,2.5-2.9c1.2-2.7,1.3-5.6,1.4-8.5c2.8,0.2,5.7-0.5,7.8-2.4
			c0.8-0.7,1.5-1.8,1.2-2.9c-0.3-1-1.4-1.7-2.4-1.6c-1.1,0.1-2.1,0.4-3.2,0.4c2.4-4.2,4.3-8.7,5.1-13.4c0.3-2,0.6-4,0-6
			c-0.3-1.1-1.1-2-1.9-2.8c-1.8-1.8-4.3-3-6.8-3.5C58.4,22.1,55.5,22.4,52.8,23.2z"/>
		<path fill="#FFFFFF" d="M52.7,24.4c3-0.9,6.2-1.2,9.2-0.3c2.4,0.7,4.6,2.1,6.1,4.1c0.6,0.8,0.8,1.9,0.8,2.9
			c0.1,1.8-0.3,3.6-0.7,5.3c-1.1,4.6-3.1,8.9-5.6,12.9c1.4,0.6,3,0.3,4.4,0.1c0.6-0.1,1.4-0.3,1.8,0.3c0.4,0.6,0,1.3-0.4,1.7
			c-2.1,2.1-5.3,2.6-8.1,2.1c-0.3,2.5-0.6,5-1,7.6c-0.2,1.4-0.7,2.9-1.8,3.8c-1,0.9-2.4,1.3-3.7,1.5c-1.3,0.2-2.9,0.1-3.9-0.9
			c-1.1-1-1.8-2.5-1.9-3.9c-0.3-2.5-0.3-5.1-0.3-7.6c-1.2,1-2.8,1.6-4.4,1.5c-1.1-0.1-2.4-0.3-3.2-1.1c-0.5-0.4-0.4-1.2,0.1-1.6
			c0.9-0.7,2.1-0.6,3.1-1c0.8-0.2,1.2-1,1.6-1.5c-0.9-0.1-1.8-0.3-2.5-0.7c-1.2,1.3-2.4,2.7-3.5,4c-0.7,0.8-1.6,1.5-2.7,1.3
			c-1.2-0.2-2.1-1.1-2.8-2c-1.3-1.9-2.2-4.1-2.9-6.3c-1.1-3.6-2-7.2-2.5-10.9c-0.3-2.8,0-5.8,1.6-8.1c1.3-1.9,3.5-2.9,5.7-3.1
			c3-0.3,6,0.3,8.8,1.3c2.3-1.5,5.3-1.8,8-1.2C52.3,24.4,52.5,24.5,52.7,24.4z M54.9,25.2c0.6,0.4,1.2,0.7,1.8,1.1
			c2.4,1.6,4.3,3.9,5.4,6.5c0.3,0.8,0.7,1.5,0.6,2.4c0,1.7-0.6,3.4-0.4,5.1c0.2,1.8,0.6,3.7,0.1,5.5c-0.1,0.6-0.5,1.2-0.7,1.8
			c0,0.1,0.1,0.3,0.1,0.3c0.2-0.3,0.4-0.6,0.6-0.9c1.9-3.1,3.3-6.5,4.3-10c0.5-1.9,0.9-3.9,0.9-5.9c0-0.8-0.1-1.7-0.6-2.4
			c-1.1-1.4-2.6-2.5-4.3-3.2C60.2,24.7,57.5,24.6,54.9,25.2z M47.9,25.4c-1.9,0.2-3.7,1.3-4.8,2.8c-1.5,2.1-2.2,4.7-2.4,7.2
			c1.6-0.7,3.3-1.4,5.1-1c1.1,0.3,2,1.3,2.2,2.4c0.5,2.3,0.8,4.6,0.3,6.9c-0.4,1.8-1.5,3.4-1.9,5.3c0.5,0,1,0.1,1.4,0.3
			c0.9,0.5,1.4,1.5,1.3,2.5c-0.1,2.5-0.1,5,0.1,7.5c0.1,1,0.1,2.1,0.4,3.1c0.4,1.2,1.2,2.4,2.5,2.7c1.4,0.2,2.8-0.2,4.1-0.8
			c1.2-0.6,1.8-2,2-3.3c0.4-2.7,0.7-5.4,1-8.1c0.1-1-0.1-2,0.5-2.9c0.3-0.6,0.9-0.8,1.4-1.1c-0.4-0.6-0.9-1.2-1.3-1.8
			c-1.3-2.8-3.1-5.4-3.7-8.4c-0.2-1.3-0.1-2.8,1-3.7c1.2-1,2.8-0.9,4.3-0.9c-0.9-2.5-2.5-4.7-4.5-6.3C54.3,25.9,51,25,47.9,25.4z
			 M34.6,25.6c-1.7,0.3-3.4,1.3-4.3,2.9c-1.2,2.1-1.3,4.5-1.1,6.8c0.4,3,1.1,6,2,9c0.8,2.5,1.6,5,3,7.2c0.5,0.8,1.1,1.6,2,1.9
			c0.8,0.2,1.4-0.5,1.9-1c1-1.3,2.2-2.5,3.3-3.8c-1.6-1.4-2.4-3.6-2.2-5.8c0.2-1.6,0.3-3.3,0.2-5c-0.2-2.3,0.2-4.7,0.9-7
			c0.5-1.7,1.4-3.2,2.6-4.5C40.2,25.7,37.3,25.1,34.6,25.6z M57.9,35.9c-0.8,0.6-0.8,1.8-0.6,2.7c0.6,2.9,2.3,5.3,3.5,7.9
			c1-1.9,0.4-4.1,0.2-6.2c-0.2-1.7,0.3-3.3,0.4-4.9C60.3,35.4,59,35.2,57.9,35.9z M40.6,37c0,1.4,0.1,2.8,0,4.1
			c-0.1,1.2-0.4,2.4-0.1,3.6c0.4,2.2,2.3,4,4.6,4c0.3-1.1,0.7-2.2,1.2-3.2c1.4-2.7,1.1-5.8,0.4-8.6c-0.2-0.8-0.9-1.4-1.7-1.4
			C43.4,35.5,41.9,36.2,40.6,37z M60.9,50.5c-0.4,0.4-0.4,1-0.4,1.5c0.9,0.3,1.9,0.3,2.9,0.2c1.4-0.2,2.9-0.6,4-1.7
			c-1.7,0.2-3.6,0.6-5.3-0.2C61.7,50.1,61.2,50.3,60.9,50.5z M44.4,52.5c-1,0.6-2.2,0.5-3.1,1c2,1,4.9,0.7,6.3-1.2
			c0.7-0.7,0-2.1-0.9-2C45.7,50.9,45.3,52,44.4,52.5z"/>
		<path fill="#FFFFFF" d="M58.3,36.3c0.6-0.4,1.4-0.4,2-0.2c0,0.8-1,1.4-1.7,1C58.4,37,58,36.6,58.3,36.3z"/>
		<path fill="#FFFFFF" d="M44.2,36.4c0.6-0.2,1.3-0.1,1.8,0.3c0.3,0.3,0,0.8-0.3,0.9c-0.7,0.5-1.8,0-1.9-0.8
			C43.8,36.6,44,36.4,44.2,36.4z"/>
		<path fill="#326690" d="M54.9,25.2c2.5-0.6,5.3-0.5,7.7,0.4c1.7,0.6,3.2,1.8,4.3,3.2c0.6,0.7,0.6,1.6,0.6,2.4c0,2-0.4,3.9-0.9,5.9
			c-1,3.5-2.4,6.9-4.3,10c-0.2,0.3-0.4,0.6-0.6,0.9c0-0.1-0.1-0.3-0.1-0.3c0.2-0.6,0.6-1.2,0.7-1.8c0.5-1.8,0.1-3.7-0.1-5.5
			c-0.2-1.7,0.4-3.4,0.4-5.1c0.1-0.8-0.3-1.6-0.6-2.4c-1.2-2.6-3-4.9-5.4-6.5C56.2,25.9,55.5,25.6,54.9,25.2z"/>
		<path fill="#326690" d="M47.9,25.4c3.1-0.4,6.4,0.5,8.9,2.4c2,1.6,3.7,3.8,4.5,6.3C59.9,34.1,58.2,34,57,35
			c-1.1,0.9-1.2,2.4-1,3.7c0.6,3.1,2.4,5.7,3.7,8.4c0.3,0.7,0.8,1.2,1.3,1.8c-0.6,0.3-1.1,0.5-1.4,1.1c-0.5,0.9-0.3,1.9-0.5,2.9
			c-0.3,2.7-0.6,5.4-1,8.1c-0.2,1.3-0.8,2.7-2,3.3c-1.2,0.6-2.7,1-4.1,0.8c-1.3-0.2-2.2-1.5-2.5-2.7c-0.3-1-0.3-2.1-0.4-3.1
			c-0.1-2.5-0.1-5-0.1-7.5c0.1-1-0.4-2-1.3-2.5c-0.4-0.2-0.9-0.3-1.4-0.3c0.4-1.8,1.5-3.4,1.9-5.3c0.5-2.3,0.2-4.6-0.3-6.9
			c-0.2-1.1-1.1-2.1-2.2-2.4c-1.8-0.4-3.5,0.2-5.1,1c0.2-2.5,0.9-5.1,2.4-7.2C44.2,26.7,46,25.7,47.9,25.4z"/>
		<path fill="#326690" d="M34.6,25.6c2.8-0.5,5.6,0,8.3,0.8c-1.2,1.3-2.1,2.8-2.6,4.5c-0.7,2.2-1,4.6-0.9,7c0.1,1.7,0.1,3.3-0.2,5
			c-0.3,2.1,0.6,4.3,2.2,5.8c-1.1,1.3-2.2,2.5-3.3,3.8c-0.5,0.6-1.1,1.2-1.9,1c-0.9-0.3-1.5-1.1-2-1.9c-1.4-2.2-2.2-4.7-3-7.2
			c-0.9-2.9-1.6-5.9-2-9c-0.2-2.3-0.1-4.8,1.1-6.8C31.2,27,32.8,26,34.6,25.6z"/>
		<path fill="#326690" d="M57.9,35.9c1-0.7,2.4-0.6,3.5-0.5c-0.1,1.6-0.6,3.2-0.4,4.9c0.2,2,0.7,4.2-0.2,6.2c-1.3-2.6-3-5-3.5-7.9
			C57.2,37.7,57.2,36.6,57.9,35.9z M58.3,36.3c-0.3,0.3,0,0.7,0.3,0.8c0.7,0.4,1.7-0.2,1.7-1C59.7,35.9,58.9,35.9,58.3,36.3z"/>
		<path fill="#326690" d="M40.6,37c1.3-0.8,2.8-1.5,4.3-1.4c0.8,0,1.5,0.6,1.7,1.4c0.7,2.8,0.9,5.9-0.4,8.6c-0.5,1-0.9,2.1-1.2,3.2
			c-2.3,0-4.2-1.9-4.6-4c-0.3-1.2,0.1-2.4,0.1-3.6C40.7,39.7,40.6,38.4,40.6,37z M44.2,36.4c-0.2,0.1-0.4,0.2-0.4,0.4
			c0.1,0.8,1.2,1.3,1.9,0.8c0.3-0.2,0.6-0.6,0.3-0.9C45.5,36.3,44.8,36.2,44.2,36.4z"/>
		<path fill="#326690" d="M60.9,50.5c0.3-0.2,0.8-0.5,1.2-0.2c1.6,0.9,3.5,0.4,5.3,0.2c-1.1,1-2.5,1.5-4,1.7c-1,0.1-2,0.2-2.9-0.2
			C60.5,51.5,60.5,50.9,60.9,50.5z"/>
		<path fill="#326690" d="M44.4,52.5c0.9-0.5,1.3-1.6,2.2-2.2c0.9-0.1,1.7,1.3,0.9,2c-1.4,1.9-4.3,2.3-6.3,1.2
			C42.2,53.1,43.4,53.1,44.4,52.5z"/>
		<path d="M52.8,23.2c2.7-0.7,5.6-1,8.4-0.5c2.5,0.4,4.9,1.7,6.8,3.5c0.8,0.8,1.6,1.7,1.9,2.8c0.6,2,0.3,4,0,6
			c-0.9,4.7-2.7,9.2-5.1,13.4c1.1,0,2.1-0.3,3.2-0.4c1-0.1,2.2,0.6,2.4,1.6c0.3,1.1-0.4,2.2-1.2,2.9C67,54.4,64,55,61.3,54.9
			c-0.2,2.9-0.2,5.8-1.4,8.5c-0.6,1.2-1.4,2.2-2.5,2.9c-1.1,0.7-2.3,1-3.5,1.2c-1.3,0.2-2.8,0.1-4-0.7c-1.1-0.7-1.7-1.8-2.1-3
			c-0.9-2.5-0.8-5.1-1-7.7c-1.9,0.8-4,0.8-5.9,0.1c-0.7-0.2-1.3-0.6-1.8-1.1c-1,0.8-2.3,1.2-3.6,0.9c-1.6-0.4-2.7-1.8-3.6-3.1
			c-1.5-2.4-2.4-5.1-3.2-7.8c-0.9-3.1-1.7-6.2-2.1-9.5c-0.2-2.9,0-5.9,1.6-8.4c1.2-2,3.4-3.4,5.7-3.9c3.3-0.7,6.7,0,9.8,0.9
			c1-0.5,2-1,3.1-1.2C48.9,22.7,50.9,22.9,52.8,23.2z M52.7,24.4c-0.2,0.1-0.5-0.1-0.7-0.1c-2.7-0.6-5.7-0.3-8,1.2
			c-2.8-1-5.8-1.6-8.8-1.3c-2.2,0.2-4.5,1.3-5.7,3.1c-1.6,2.4-1.8,5.4-1.6,8.1c0.5,3.7,1.4,7.3,2.5,10.8c0.8,2.2,1.6,4.4,2.9,6.3
			c0.7,0.9,1.6,1.9,2.8,2c1.1,0.1,2-0.5,2.7-1.3c1.2-1.4,2.3-2.7,3.5-4c0.8,0.4,1.7,0.6,2.5,0.7c-0.5,0.6-0.9,1.3-1.6,1.5
			c-1,0.4-2.2,0.3-3.1,1c-0.5,0.4-0.6,1.2-0.1,1.6c0.8,0.8,2.1,1,3.2,1.1c1.6,0.1,3.2-0.4,4.4-1.5c0,2.5,0,5.1,0.3,7.6
			c0.1,1.5,0.8,3,1.9,3.9c1,0.9,2.6,1.1,3.9,0.9c1.3-0.3,2.7-0.7,3.7-1.5c1.1-1,1.6-2.4,1.8-3.8c0.4-2.5,0.7-5,1-7.6
			c2.8,0.5,6-0.1,8.1-2.1c0.4-0.4,0.9-1.2,0.4-1.7c-0.4-0.5-1.2-0.4-1.8-0.3c-1.4,0.3-3,0.6-4.4-0.1c2.5-4,4.5-8.3,5.6-12.9
			c0.4-1.7,0.7-3.5,0.7-5.3c-0.1-1-0.2-2.1-0.8-2.9c-1.5-2-3.7-3.4-6.1-4.1C59,23.3,55.7,23.5,52.7,24.4z"/>
	</g>
</g>
</svg>
