<?xml version="1.0" encoding="UTF-8" standalone="no"?>
<!-- Created with Inkscape (http://www.inkscape.org/) -->

<svg
   xmlns:dc="http://purl.org/dc/elements/1.1/"
   xmlns:cc="http://creativecommons.org/ns#"
   xmlns:rdf="http://www.w3.org/1999/02/22-rdf-syntax-ns#"
   xmlns:svg="http://www.w3.org/2000/svg"
   xmlns="http://www.w3.org/2000/svg"
   xmlns:sodipodi="http://sodipodi.sourceforge.net/DTD/sodipodi-0.dtd"
   xmlns:inkscape="http://www.inkscape.org/namespaces/inkscape"
   width="210mm"
   height="297mm"
   viewBox="0 0 744.09448819 1052.3622047"
   id="svg4200"
   version="1.1"
   inkscape:version="0.91 r13725"
   sodipodi:docname="404_3.svg">
  <defs
     id="defs4202" />
  <sodipodi:namedview
     id="base"
     pagecolor="#ffffff"
     bordercolor="#666666"
     borderopacity="1.0"
     inkscape:pageopacity="0.0"
     inkscape:pageshadow="2"
     inkscape:zoom="0.79350828"
     inkscape:cx="211.26207"
     inkscape:cy="713.62199"
     inkscape:document-units="px"
     inkscape:current-layer="layer1"
     showgrid="false"
     showguides="false"
     inkscape:window-width="1627"
     inkscape:window-height="942"
     inkscape:window-x="2111"
     inkscape:window-y="29"
     inkscape:window-maximized="0" />
  <metadata
     id="metadata4205">
    <rdf:RDF>
      <cc:Work
         rdf:about="">
        <dc:format>image/svg+xml</dc:format>
        <dc:type
           rdf:resource="http://purl.org/dc/dcmitype/StillImage" />
        <dc:title></dc:title>
      </cc:Work>
    </rdf:RDF>
  </metadata>
  <g
     inkscape:label="Ebene 1"
     inkscape:groupmode="layer"
     id="layer1">
    <path
       style="opacity:1;fill:#55ddff;fill-opacity:1;stroke:#55ddff;stroke-width:2.40137315;stroke-miterlimit:4;stroke-dasharray:none;stroke-dashoffset:0;stroke-opacity:1"
       d="m 294.77866,608.54984 c -60.37139,0.003 -112.52095,3.42787 -125.15264,8.22059 -49.70894,1.53193 -82.585149,5.39836 -82.606099,9.71492 0.0609,3.5676 22.651359,6.88346 59.842769,8.78379 0.9632,5.68353 57.97527,10.25052 127.98969,10.25269 43.95868,-0.004 84.81412,-1.83993 108.21866,-4.86082 10.51479,0.22659 21.34236,0.34347 32.22114,0.34782 69.03822,-0.007 125.58699,-4.45455 127.84053,-10.05637 10.6964,-1.54964 16.32318,-3.29596 16.34345,-5.07234 -0.004,-3.80554 -22.20826,-7.14568 -61.09538,-9.4499 -22.85487,-2.58751 -64.74005,-2.7321 -103.91896,-2.87699 -24.29612,-2.44949 -60.94496,-5.00212 -99.68316,-5.00339 z"
       id="path4986-3"
       inkscape:connector-curvature="0"
       sodipodi:nodetypes="cccccccccccc" />
    <path
       style="opacity:1;fill:#552200;fill-opacity:1;stroke:#000000;stroke-width:0.5;stroke-miterlimit:4;stroke-dasharray:none;stroke-dashoffset:0;stroke-opacity:1"
       d="m 206.66924,570.02051 c -0.003,0 -0.006,0.003 -0.006,0.006 l 0,17.8418 c 0,0.003 0.003,0.006 0.006,0.006 l 14.7793,0 0,36.26758 c 0,0.003 0.003,0.006 0.006,0.006 l 19.42578,0 c 0.003,0 0.006,-0.003 0.006,-0.006 l 0,-36.26758 136.87695,0 0,37.48242 c 0,0.003 0.003,0.006 0.006,0.006 l 19.42774,0 c 0.003,0 0.006,-0.003 0.006,-0.006 l 0,-37.48242 16.54492,0 c 0.003,0 0.006,-0.003 0.006,-0.006 l 0,-17.8418 c 0,-0.003 -0.003,-0.006 -0.006,-0.006 l -207.07813,0 z"
       id="rect4881"
       inkscape:connector-curvature="0" />
    <path
       style="opacity:1;fill:#ffaaaa;fill-opacity:1;stroke:#000000;stroke-width:0.93250668;stroke-miterlimit:4;stroke-dasharray:none;stroke-dashoffset:0;stroke-opacity:1"
       d="m 310.80401,460.49122 c -20.97088,0.0276 -40.68298,9.24475 -53.11914,24.83789 l -35.25586,29.35547 c -0.002,0.002 -0.002,0.005 0,0.008 l 0.76758,0.9707 6.35937,57.93555 c 4.4e-4,0.004 0.004,0.006 0.008,0.006 l 13.66406,-1.5 c 0.004,-4.4e-4 0.006,-0.004 0.006,-0.008 l -5.48633,-49.97461 7.26367,-6.04688 c -0.18675,1.81011 -0.2858,3.62703 -0.29687,5.44531 -8.3e-4,33.70704 29.58913,61.03215 66.08984,61.03125 36.49995,-1e-4 66.08872,-27.32491 66.08789,-61.03125 -0.0204,-3.96552 -0.45936,-7.91976 -1.31055,-11.80664 l 6.51172,4.57422 -5.79883,54.90039 c -4.2e-4,0.004 0.002,0.007 0.006,0.008 l 13.65821,1.5586 c 0.004,4.5e-4 0.007,-0.002 0.008,-0.006 1.15082,-21.28916 5.69031,-44.50853 7.8065,-64.40253 0.002,-0.003 0.002,-0.006 0,-0.008 l -39.18359,-27.52344 c -0.002,-0.002 -0.006,-7.1e-4 -0.008,0.002 l -0.22461,0.33594 c -12.45211,-11.92191 -29.61654,-18.6581 -47.55306,-18.66197 z"
       id="path4778"
       inkscape:connector-curvature="0"
       sodipodi:nodetypes="cccccccccccccccccccccccccc" />
    <circle
       style="fill:#ffd5d5;fill-opacity:1;stroke:none;stroke-width:1.5;stroke-miterlimit:4;stroke-dasharray:none"
       id="path4136-8"
       cx="307.55423"
       cy="405.09723"
       r="88.915688" />
    <ellipse
       style="fill:#ffffff;fill-opacity:1;stroke:none;stroke-width:1.5;stroke-miterlimit:4;stroke-dasharray:none"
       id="path4157-3"
       cx="282.14975"
       cy="412.99319"
       rx="16.821886"
       ry="21.284836" />
    <ellipse
       style="fill:#ffffff;fill-opacity:1;stroke:none;stroke-width:1.5;stroke-miterlimit:4;stroke-dasharray:none"
       id="path4157-5-3"
       cx="329.86896"
       cy="412.30658"
       rx="16.821886"
       ry="21.284836" />
    <ellipse
       style="fill:#ffaaaa;fill-opacity:1;stroke:#000000;stroke-width:1.07142854;stroke-miterlimit:4;stroke-dasharray:none"
       id="path4174-4"
       cx="308.24084"
       cy="460.36908"
       rx="31.927254"
       ry="26.777695" />
    <ellipse
       style="fill:#ffd5d5;fill-opacity:1;stroke:#000000;stroke-width:0.94023323;stroke-miterlimit:4;stroke-dasharray:none"
       id="path4178-8"
       cx="296.44702"
       cy="466.20526"
       rx="11.273131"
       ry="10.708015" />
    <ellipse
       style="fill:#ffd5d5;fill-opacity:1;stroke:#000000;stroke-width:0.94023323;stroke-miterlimit:4;stroke-dasharray:none"
       id="path4178-4-0"
       cx="320.25647"
       cy="465.862"
       rx="11.273131"
       ry="10.708015" />
    <ellipse
       style="fill:#000000;fill-opacity:1;stroke:#000000;stroke-width:0.87957835;stroke-miterlimit:4;stroke-dasharray:none"
       id="path4195-6-7"
       cx="328.31271"
       cy="421.57596"
       rx="9.3651285"
       ry="7.5569038" />
    <path
       style="fill:#ffaaaa;fill-opacity:1;stroke:#000000;stroke-width:0.75119644;stroke-miterlimit:4;stroke-dasharray:none"
       d="m 257.99689,400.95576 c 1.73675,12.74896 11.56534,18.97705 21.95278,13.91084 10.38743,-5.06618 17.40019,-19.50822 15.66348,-32.25713"
       id="path4229-7"
       inkscape:connector-curvature="0"
       sodipodi:nodetypes="csc" />
    <path
       style="fill:#ffaaaa;fill-rule:evenodd;stroke:#000000;stroke-width:0.65749294px;stroke-linecap:butt;stroke-linejoin:miter;stroke-opacity:1"
       d="m 266.81468,334.81787 c 13.07613,4.22528 8.85349,26.08801 13.40614,39.08811 6.85095,19.56294 -43.25077,-0.35824 -45.42966,-16.34533 -1.77144,-12.99748 19.57404,-26.76557 32.02352,-22.74278 z"
       id="path4140-0-0"
       inkscape:connector-curvature="0"
       sodipodi:nodetypes="ssss" />
    <path
       style="fill:#ffaaaa;fill-rule:evenodd;stroke:#000000;stroke-width:0.65749294px;stroke-linecap:butt;stroke-linejoin:miter;stroke-opacity:1"
       d="m 346.23398,333.44465 c -13.07613,4.22528 -8.85349,26.08801 -13.40614,39.08811 -6.85095,19.56294 43.25077,-0.35824 45.42966,-16.34533 1.77144,-12.99748 -19.57404,-26.76557 -32.02352,-22.74278 z"
       id="path4140-0-2-5"
       inkscape:connector-curvature="0"
       sodipodi:nodetypes="ssss" />
    <rect
       style="opacity:1;fill:#ffd5d5;fill-opacity:1;stroke:#000000;stroke-width:1.00012445;stroke-miterlimit:4;stroke-dasharray:none;stroke-dashoffset:0;stroke-opacity:1"
       id="rect4864"
       width="31.570408"
       height="47.737427"
       x="376.31522"
       y="510.89426"
       ry="0.0057980842"
       transform="matrix(0.98412837,0.17745804,-0.19936581,0.97992514,0,0)" />
    <rect
       style="opacity:1;fill:#ffd5d5;fill-opacity:1;stroke:#000000;stroke-width:1.00012445;stroke-miterlimit:4;stroke-dasharray:none;stroke-dashoffset:0;stroke-opacity:1"
       id="rect4864-0"
       width="31.570408"
       height="47.737427"
       x="-231.17136"
       y="621.12537"
       ry="0.0057980842"
       transform="matrix(-0.98412837,0.17745804,0.19936581,0.97992514,0,0)" />
    <ellipse
       style="fill:#000000;fill-opacity:1;stroke:#000000;stroke-width:0.87957835;stroke-miterlimit:4;stroke-dasharray:none"
       id="path4195-6-7-0"
       cx="284.61945"
       cy="423.03476"
       rx="9.3651285"
       ry="7.5569038" />
    <path
       style="fill:#ffaaaa;fill-opacity:1;stroke:#000000;stroke-width:0.75119644;stroke-miterlimit:4;stroke-dasharray:none"
       d="m 354.73943,400.40743 c -1.73675,12.74896 -11.56534,18.97705 -21.95278,13.91084 -10.38743,-5.06618 -17.40019,-19.50822 -15.66348,-32.25713"
       id="path4229-7-2"
       inkscape:connector-curvature="0"
       sodipodi:nodetypes="csc" />
    <path
       style="opacity:1;fill:#000000;fill-opacity:0;stroke:#55ddff;stroke-width:5;stroke-miterlimit:4;stroke-dasharray:none;stroke-dashoffset:0;stroke-opacity:1"
       d="m 281.49082,72.331977 c -47.31762,0.01352 -88.1912,18.960604 -98.09161,45.470693 -38.96065,8.47361 -64.72824,29.86002 -64.74465,53.73633 0.0477,19.73352 17.75358,38.07462 46.90331,48.58595 0.75494,31.43744 45.43961,56.69891 100.31521,56.71094 34.45376,-0.0268 66.47526,-10.17725 84.81916,-26.88672 8.24124,1.2533 16.72764,1.89979 25.25415,1.92383 54.11048,-0.0344 98.43203,-24.63946 100.19831,-55.625 8.38358,-8.57158 12.79371,-18.231 12.8096,-28.05666 -0.003,-21.04969 -17.4063,-39.52515 -47.88508,-52.2705 -17.9131,-14.31234 -50.74168,-15.11211 -81.44916,-15.91356 -19.0427,-13.548924 -47.76717,-27.668291 -78.12924,-27.675303 z"
       id="path4986"
       inkscape:connector-curvature="0"
       sodipodi:nodetypes="cccccccccccc" />
    <text
       xml:space="preserve"
       style="font-style:italic;font-variant:normal;font-weight:normal;font-stretch:normal;font-size:40.29507446px;line-height:125%;font-family:'Brush Script MT';-inkscape-font-specification:'Brush Script MT, Italic';text-align:start;letter-spacing:0px;word-spacing:0px;writing-mode:lr-tb;text-anchor:start;fill:#55ddff;fill-opacity:1;stroke:none;stroke-width:1px;stroke-linecap:butt;stroke-linejoin:miter;stroke-opacity:1"
       x="446.01447"
       y="290.47791"
       id="text5360-6-9-0-6-8-5-1"
       sodipodi:linespacing="125%"><tspan
         sodipodi:role="line"
         id="tspan5362-8-3-2-5-0-9-7"
         x="446.01447"
         y="290.47791">404</tspan></text>
    <text
       xml:space="preserve"
       style="font-style:italic;font-variant:normal;font-weight:normal;font-stretch:normal;font-size:40.29507446px;line-height:125%;font-family:'Brush Script MT';-inkscape-font-specification:'Brush Script MT, Italic';text-align:start;letter-spacing:0px;word-spacing:0px;writing-mode:lr-tb;text-anchor:start;fill:#55ddff;fill-opacity:1;stroke:none;stroke-width:1px;stroke-linecap:butt;stroke-linejoin:miter;stroke-opacity:1"
       x="346.9877"
       y="304.34042"
       id="text5360-6-9-0-6-8-5-1-5"
       sodipodi:linespacing="125%"><tspan
         sodipodi:role="line"
         id="tspan5362-8-3-2-5-0-9-7-5"
         x="346.9877"
         y="304.34042">404</tspan></text>
    <text
       xml:space="preserve"
       style="font-style:italic;font-variant:normal;font-weight:normal;font-stretch:normal;font-size:40.29507446px;line-height:125%;font-family:'Brush Script MT';-inkscape-font-specification:'Brush Script MT, Italic';text-align:start;letter-spacing:0px;word-spacing:0px;writing-mode:lr-tb;text-anchor:start;fill:#55ddff;fill-opacity:1;stroke:none;stroke-width:1px;stroke-linecap:butt;stroke-linejoin:miter;stroke-opacity:1"
       x="415.03992"
       y="352.229"
       id="text5360-6-9-0-6-8-5-1-5-9"
       sodipodi:linespacing="125%"><tspan
         sodipodi:role="line"
         id="tspan5362-8-3-2-5-0-9-7-5-1"
         x="415.03992"
         y="352.229">404</tspan></text>
    <text
       xml:space="preserve"
       style="font-style:italic;font-variant:normal;font-weight:normal;font-stretch:normal;font-size:40.29507446px;line-height:125%;font-family:'Brush Script MT';-inkscape-font-specification:'Brush Script MT, Italic';text-align:start;letter-spacing:0px;word-spacing:0px;writing-mode:lr-tb;text-anchor:start;fill:#55ddff;fill-opacity:1;stroke:none;stroke-width:1px;stroke-linecap:butt;stroke-linejoin:miter;stroke-opacity:1"
       x="452.84671"
       y="406.41873"
       id="text5360-6-9-0-6-8-5-1-5-9-5"
       sodipodi:linespacing="125%"><tspan
         sodipodi:role="line"
         id="tspan5362-8-3-2-5-0-9-7-5-1-2"
         x="452.84671"
         y="406.41873">404</tspan></text>
    <text
       xml:space="preserve"
       style="font-style:italic;font-variant:normal;font-weight:normal;font-stretch:normal;font-size:40.29507446px;line-height:125%;font-family:'Brush Script MT';-inkscape-font-specification:'Brush Script MT, Italic';text-align:start;letter-spacing:0px;word-spacing:0px;writing-mode:lr-tb;text-anchor:start;fill:#55ddff;fill-opacity:1;stroke:none;stroke-width:1px;stroke-linecap:butt;stroke-linejoin:miter;stroke-opacity:1"
       x="427.64218"
       y="470.69025"
       id="text5360-6-9-0-6-8-5-1-3"
       sodipodi:linespacing="125%"><tspan
         sodipodi:role="line"
         id="tspan5362-8-3-2-5-0-9-7-7"
         x="427.64218"
         y="470.69025">404</tspan></text>
    <text
       xml:space="preserve"
       style="font-style:italic;font-variant:normal;font-weight:normal;font-stretch:normal;font-size:40.29507446px;line-height:125%;font-family:'Brush Script MT';-inkscape-font-specification:'Brush Script MT, Italic';text-align:start;letter-spacing:0px;word-spacing:0px;writing-mode:lr-tb;text-anchor:start;fill:#55ddff;fill-opacity:1;stroke:none;stroke-width:1px;stroke-linecap:butt;stroke-linejoin:miter;stroke-opacity:1"
       x="179.37759"
       y="329.54492"
       id="text5360-6-9-0-6-8-5-1-3-7"
       sodipodi:linespacing="125%"><tspan
         sodipodi:role="line"
         id="tspan5362-8-3-2-5-0-9-7-7-8"
         x="179.37759"
         y="329.54492">404</tspan></text>
    <text
       xml:space="preserve"
       style="font-style:italic;font-variant:normal;font-weight:normal;font-stretch:normal;font-size:40.29507446px;line-height:125%;font-family:'Brush Script MT';-inkscape-font-specification:'Brush Script MT, Italic';text-align:start;letter-spacing:0px;word-spacing:0px;writing-mode:lr-tb;text-anchor:start;fill:#55ddff;fill-opacity:1;stroke:none;stroke-width:1px;stroke-linecap:butt;stroke-linejoin:miter;stroke-opacity:1"
       x="113.84583"
       y="287.95746"
       id="text5360-6-9-0-6-8-5-1-3-7-9"
       sodipodi:linespacing="125%"><tspan
         sodipodi:role="line"
         id="tspan5362-8-3-2-5-0-9-7-7-8-5"
         x="113.84583"
         y="287.95746">404</tspan></text>
    <text
       xml:space="preserve"
       style="font-style:italic;font-variant:normal;font-weight:normal;font-stretch:normal;font-size:40.29507446px;line-height:125%;font-family:'Brush Script MT';-inkscape-font-specification:'Brush Script MT, Italic';text-align:start;letter-spacing:0px;word-spacing:0px;writing-mode:lr-tb;text-anchor:start;fill:#55ddff;fill-opacity:1;stroke:none;stroke-width:1px;stroke-linecap:butt;stroke-linejoin:miter;stroke-opacity:1"
       x="123.92764"
       y="369.87216"
       id="text5360-6-9-0-6-8-5-1-3-7-9-6"
       sodipodi:linespacing="125%"><tspan
         sodipodi:role="line"
         id="tspan5362-8-3-2-5-0-9-7-7-8-5-7"
         x="123.92764"
         y="369.87216">404</tspan></text>
    <text
       xml:space="preserve"
       style="font-style:italic;font-variant:normal;font-weight:normal;font-stretch:normal;font-size:40.29507446px;line-height:125%;font-family:'Brush Script MT';-inkscape-font-specification:'Brush Script MT, Italic';text-align:start;letter-spacing:0px;word-spacing:0px;writing-mode:lr-tb;text-anchor:start;fill:#55ddff;fill-opacity:1;stroke:none;stroke-width:1px;stroke-linecap:butt;stroke-linejoin:miter;stroke-opacity:1"
       x="102.5038"
       y="436.66418"
       id="text5360-6-9-0-6-8-5-1-3-7-9-6-9"
       sodipodi:linespacing="125%"><tspan
         sodipodi:role="line"
         id="tspan5362-8-3-2-5-0-9-7-7-8-5-7-9"
         x="102.5038"
         y="436.66418">404</tspan></text>
    <text
       xml:space="preserve"
       style="font-style:italic;font-variant:normal;font-weight:normal;font-stretch:normal;font-size:40.29507446px;line-height:125%;font-family:'Brush Script MT';-inkscape-font-specification:'Brush Script MT, Italic';text-align:start;letter-spacing:0px;word-spacing:0px;writing-mode:lr-tb;text-anchor:start;fill:#55ddff;fill-opacity:1;stroke:none;stroke-width:1px;stroke-linecap:butt;stroke-linejoin:miter;stroke-opacity:1"
       x="131.48898"
       y="504.71637"
       id="text5360-6-9-0-6-8-5-1-3-7-9-6-9-0"
       sodipodi:linespacing="125%"><tspan
         sodipodi:role="line"
         id="tspan5362-8-3-2-5-0-9-7-7-8-5-7-9-8"
         x="131.48898"
         y="504.71637">404</tspan></text>
    <text
       xml:space="preserve"
       style="font-style:italic;font-variant:normal;font-weight:normal;font-stretch:normal;font-size:152.71366882px;line-height:125%;font-family:'Brush Script MT';-inkscape-font-specification:'Brush Script MT, Italic';text-align:start;letter-spacing:0px;word-spacing:0px;writing-mode:lr-tb;text-anchor:start;fill:#55ddff;fill-opacity:1;stroke:none;stroke-width:1px;stroke-linecap:butt;stroke-linejoin:miter;stroke-opacity:1"
       x="197.73206"
       y="217.84288"
       id="text5360-6-9-0-6-8-5-1-3-7-9-0"
       sodipodi:linespacing="125%"><tspan
         sodipodi:role="line"
         id="tspan5362-8-3-2-5-0-9-7-7-8-5-2"
         x="197.73206"
         y="217.84288">404</tspan></text>
    <text
       xml:space="preserve"
       style="font-style:italic;font-variant:normal;font-weight:normal;font-stretch:normal;font-size:40.29507446px;line-height:125%;font-family:'Brush Script MT';-inkscape-font-specification:'Brush Script MT, Italic';text-align:start;letter-spacing:0px;word-spacing:0px;writing-mode:lr-tb;text-anchor:start;fill:#55ddff;fill-opacity:1;stroke:none;stroke-width:1px;stroke-linecap:butt;stroke-linejoin:miter;stroke-opacity:1"
       x="467.96942"
       y="538.74249"
       id="text5360-6-9-0-6-8-5-1-3-2"
       sodipodi:linespacing="125%"><tspan
         sodipodi:role="line"
         id="tspan5362-8-3-2-5-0-9-7-7-0"
         x="467.96942"
         y="538.74249">404</tspan></text>
    <text
       xml:space="preserve"
       style="font-style:italic;font-variant:normal;font-weight:normal;font-stretch:normal;font-size:40.29507446px;line-height:125%;font-family:'Brush Script MT';-inkscape-font-specification:'Brush Script MT, Italic';text-align:start;letter-spacing:0px;word-spacing:0px;writing-mode:lr-tb;text-anchor:start;fill:#55ddff;fill-opacity:1;stroke:none;stroke-width:1px;stroke-linecap:butt;stroke-linejoin:miter;stroke-opacity:1"
       x="97.462883"
       y="570.24817"
       id="text5360-6-9-0-6-8-5-1-3-2-2"
       sodipodi:linespacing="125%"><tspan
         sodipodi:role="line"
         id="tspan5362-8-3-2-5-0-9-7-7-0-4"
         x="97.462883"
         y="570.24817">404</tspan></text>
  </g>
</svg>
